<!-- Generator: Adobe Illustrator 22.0.1, SVG Export Plug-In  -->
<svg version="1.1"
	 xmlns="http://www.w3.org/2000/svg" xmlns:xlink="http://www.w3.org/1999/xlink" xmlns:a="http://ns.adobe.com/AdobeSVGViewerExtensions/3.0/"
	 x="0px" y="0px" width="47.4px" height="58.6px" viewBox="0 0 47.4 58.6" style="enable-background:new 0 0 47.4 58.6;"
	 xml:space="preserve">
<style type="text/css">
	.st0{fill:#000000;}
</style>
<defs>
</defs>
<g>
	<g>
		<path class="st0" d="M23.8,0L23.8,0c1.7,0,3,1.3,3,3v50c0,1.7-1.3,3-3,3l0,0c-1.7,0-3-1.3-3-3V3C20.8,1.3,22.1,0,23.8,0z"/>
		<path class="st0" d="M0.9,33.1L0.9,33.1c1.2-1.2,3.1-1.2,4.2,0l20.4,20.4c1.2,1.2,1.2,3.1,0,4.2l0,0c-1.2,1.2-3.1,1.2-4.2,0
			L0.9,37.3C-0.3,36.2-0.3,34.3,0.9,33.1z"/>
		<path class="st0" d="M46.5,33.1L46.5,33.1c1.2,1.2,1.2,3.1,0,4.2L26.1,57.7c-1.2,1.2-3.1,1.2-4.2,0l0,0c-1.2-1.2-1.2-3.1,0-4.2
			l20.4-20.4C43.4,31.9,45.3,31.9,46.5,33.1z"/>
	</g>
</g>
</svg>
