<svg xmlns="http://www.w3.org/2000/svg" width="100.62" height="115.22" viewBox="0 0 100.62 115.22">
  <metadata><?xpacket begin="﻿" id="W5M0MpCehiHzreSzNTczkc9d"?>
<x:xmpmeta xmlns:x="adobe:ns:meta/" x:xmptk="Adobe XMP Core 5.6-c138 79.159824, 2016/09/14-01:09:01        ">
   <rdf:RDF xmlns:rdf="http://www.w3.org/1999/02/22-rdf-syntax-ns#">
      <rdf:Description rdf:about=""/>
   </rdf:RDF>
</x:xmpmeta>
                                                                                                    
                                                                                                    
                                                                                                    
                                                                                                    
                                                                                                    
                                                                                                    
                                                                                                    
                                                                                                    
                                                                                                    
                                                                                                    
                                                                                                    
                                                                                                    
                                                                                                    
                                                                                                    
                                                                                                    
                                                                                                    
                                                                                                    
                                                                                                    
                                                                                                    
                                                                                                    
                           
<?xpacket end="w"?></metadata>
<defs>
    <style>
      .cls-1 {
        fill: #31373c;
        fill-rule: evenodd;
      }
    </style>
  </defs>
  <path id="icon_business" class="cls-1" d="M2195.5,1587.22a1.471,1.471,0,0,1-.7-0.19l-48.92-28.11a1.4,1.4,0,0,1-.7-1.21v-56.22a1.4,1.4,0,0,1,.7-1.2l48.92-28.11a1.4,1.4,0,0,1,1.4,0l48.92,28.11a1.4,1.4,0,0,1,.7,1.2v56.22a1.4,1.4,0,0,1-.7,1.21l-48.92,28.11A1.471,1.471,0,0,1,2195.5,1587.22Zm-47.52-30.31,47.52,27.31,47.52-27.31V1502.3l-47.52-27.31-47.52,27.31v54.61Zm66.67-41.88h-7.63v-3.98a3.491,3.491,0,0,0-3.49-3.48h-15.5a3.485,3.485,0,0,0-3.49,3.48v3.98h-7.63a3.491,3.491,0,0,0-3.49,3.48v26.86a3.485,3.485,0,0,0,3.49,3.48h37.74a3.491,3.491,0,0,0,3.49-3.48v-26.86A3.5,3.5,0,0,0,2214.65,1515.03Zm-27.7-3.98a1.08,1.08,0,0,1,1.08-1.07h15.5a1.071,1.071,0,0,1,1.07,1.07v3.98h-17.65v-3.98Zm-10.04,6.39h37.74a1.071,1.071,0,0,1,1.07,1.07v8.27l-19.82,4.77-20.07-4.77v-8.27A1.08,1.08,0,0,1,2176.91,1517.44Zm37.74,29.01h-37.74a1.08,1.08,0,0,1-1.08-1.07v-16.13l19.79,4.7a0.9,0.9,0,0,0,.28.04,0.863,0.863,0,0,0,.28-0.04l19.54-4.7v16.13A1.071,1.071,0,0,1,2214.65,1546.45Z" transform="translate(-2145.19 -1472)"/>
</svg>
