<svg xmlns="http://www.w3.org/2000/svg" width="100.62" height="115.22" viewBox="0 0 100.62 115.22">
  <metadata><?xpacket begin="﻿" id="W5M0MpCehiHzreSzNTczkc9d"?>
<x:xmpmeta xmlns:x="adobe:ns:meta/" x:xmptk="Adobe XMP Core 5.6-c138 79.159824, 2016/09/14-01:09:01        ">
   <rdf:RDF xmlns:rdf="http://www.w3.org/1999/02/22-rdf-syntax-ns#">
      <rdf:Description rdf:about=""/>
   </rdf:RDF>
</x:xmpmeta>
                                                                                                    
                                                                                                    
                                                                                                    
                                                                                                    
                                                                                                    
                                                                                                    
                                                                                                    
                                                                                                    
                                                                                                    
                                                                                                    
                                                                                                    
                                                                                                    
                                                                                                    
                                                                                                    
                                                                                                    
                                                                                                    
                                                                                                    
                                                                                                    
                                                                                                    
                                                                                                    
                           
<?xpacket end="w"?></metadata>
<defs>
    <style>
      .cls-1 {
        fill: #31373c;
        fill-rule: evenodd;
      }
    </style>
  </defs>
  <path id="icon_consumer" class="cls-1" d="M1971.32,1590a1.316,1.316,0,0,1-.7-0.19l-48.92-28.11a1.375,1.375,0,0,1-.7-1.2v-56.22a1.4,1.4,0,0,1,.7-1.21l48.92-28.11a1.382,1.382,0,0,1,1.39,0l48.92,28.11a1.4,1.4,0,0,1,.7,1.21v56.22a1.375,1.375,0,0,1-.7,1.2l-48.92,28.11A1.306,1.306,0,0,1,1971.32,1590Zm-47.52-30.3,47.52,27.3,47.52-27.3v-54.62l-47.52-27.31-47.52,27.31v54.62Zm24.16-43.79h4.07l9.21,27.48a4.951,4.951,0,1,0,6.6,4.67,4.844,4.844,0,0,0-.68-2.47h12.53a4.973,4.973,0,1,0,4.3-2.47h-20.23l-1.65-4.95h23.12a1.246,1.246,0,0,0,1.18-.85l4.97-14.83a1.235,1.235,0,0,0-1.18-1.63h-33.89l-2.2-6.58a1.251,1.251,0,0,0-1.18-.84h-4.97A1.235,1.235,0,1,0,1947.96,1515.91Zm36.03,29.68a2.47,2.47,0,1,1-2.49,2.47A2.477,2.477,0,0,1,1983.99,1545.59Zm-21.12,0a2.47,2.47,0,1,1-2.49,2.47A2.477,2.477,0,0,1,1962.87,1545.59Zm25.61-22.26-4.15,12.37h-23.05l-4.14-12.37h31.34Z" transform="translate(-1921 -1474.78)"/>
</svg>
