<svg xmlns="http://www.w3.org/2000/svg" width="100.62" height="115.22" viewBox="0 0 100.62 115.22">
  <metadata><?xpacket begin="﻿" id="W5M0MpCehiHzreSzNTczkc9d"?>
<x:xmpmeta xmlns:x="adobe:ns:meta/" x:xmptk="Adobe XMP Core 5.6-c138 79.159824, 2016/09/14-01:09:01        ">
   <rdf:RDF xmlns:rdf="http://www.w3.org/1999/02/22-rdf-syntax-ns#">
      <rdf:Description rdf:about=""/>
   </rdf:RDF>
</x:xmpmeta>
                                                                                                    
                                                                                                    
                                                                                                    
                                                                                                    
                                                                                                    
                                                                                                    
                                                                                                    
                                                                                                    
                                                                                                    
                                                                                                    
                                                                                                    
                                                                                                    
                                                                                                    
                                                                                                    
                                                                                                    
                                                                                                    
                                                                                                    
                                                                                                    
                                                                                                    
                                                                                                    
                           
<?xpacket end="w"?></metadata>
<defs>
    <style>
      .cls-1 {
        fill: #31373c;
        fill-rule: evenodd;
      }
    </style>
  </defs>
  <path id="icon_healthcare" class="cls-1" d="M2419.68,1590a1.306,1.306,0,0,1-.69-0.19l-48.92-28.11a1.387,1.387,0,0,1-.7-1.2v-56.22a1.4,1.4,0,0,1,.7-1.21l48.92-28.11a1.382,1.382,0,0,1,1.39,0l48.92,28.11a1.4,1.4,0,0,1,.7,1.21v56.22a1.387,1.387,0,0,1-.7,1.2l-48.92,28.11A1.316,1.316,0,0,1,2419.68,1590Zm-47.52-30.3,47.52,27.3,47.52-27.3v-54.62l-47.52-27.31-47.52,27.31v54.62Zm66.34-17.4a4.4,4.4,0,0,0-6.58,5.8l-1.29,1.16a7.323,7.323,0,0,1-7.92,1.24,7.142,7.142,0,0,1-4.08-6.45v-6.13a12.748,12.748,0,0,0,11.44-12.59v-11.29a3.615,3.615,0,0,0-3.66-3.59h-1.43a1.335,1.335,0,1,0,0,2.67h1.43a0.941,0.941,0,0,1,.97.97v11.24a10.1,10.1,0,0,1-20.19,0v-11.29a0.952,0.952,0,0,1,.97-0.97h1.44a1.338,1.338,0,0,0,1.34-1.33,1.3,1.3,0,0,0-1.34-1.29h-1.44a3.6,3.6,0,0,0-3.61,3.59v11.25a12.7,12.7,0,0,0,11.44,12.58v5.9a10.076,10.076,0,0,0,2.59,6.87,9.738,9.738,0,0,0,7.18,3.13,9.538,9.538,0,0,0,6.44-2.39l1.9-1.71a4.4,4.4,0,0,0,5.65-3.46A4.4,4.4,0,0,0,2438.5,1542.3Zm-1.3,3.18a1.76,1.76,0,1,1-1.76-1.75A1.723,1.723,0,0,1,2437.2,1545.48Z" transform="translate(-2369.38 -1474.78)"/>
</svg>
