<svg xmlns="http://www.w3.org/2000/svg" width="32" height="32" viewBox="0 0 32 32">
  <metadata><?xpacket begin="﻿" id="W5M0MpCehiHzreSzNTczkc9d"?>
<x:xmpmeta xmlns:x="adobe:ns:meta/" x:xmptk="Adobe XMP Core 5.6-c138 79.159824, 2016/09/14-01:09:01        ">
   <rdf:RDF xmlns:rdf="http://www.w3.org/1999/02/22-rdf-syntax-ns#">
      <rdf:Description rdf:about=""/>
   </rdf:RDF>
</x:xmpmeta>
                                                                                                    
                                                                                                    
                                                                                                    
                                                                                                    
                                                                                                    
                                                                                                    
                                                                                                    
                                                                                                    
                                                                                                    
                                                                                                    
                                                                                                    
                                                                                                    
                                                                                                    
                                                                                                    
                                                                                                    
                                                                                                    
                                                                                                    
                                                                                                    
                                                                                                    
                                                                                                    
                           
<?xpacket end="w"?></metadata>
<defs>
    <style>
      .cls-1 {
        fill: #31373c;
        fill-rule: evenodd;
      }
    </style>
  </defs>
  <path id="linkedIn" class="cls-1" d="M2048,1324a6,6,0,0,1-6,6h-20a6,6,0,0,1-6-6v-20a6,6,0,0,1,6-6h20a6,6,0,0,1,6,6v20Zm-24.63-20.63a2.507,2.507,0,1,0-.06,5h0.02A2.508,2.508,0,1,0,2023.37,1303.37Zm2.38,21.42v-14.46h-4.81v14.46h4.81Zm17.31,0v-8.29c0-4.44-2.37-6.5-5.54-6.5a4.742,4.742,0,0,0-4.35,2.44h0.04v-2.11h-4.81s0.06,1.36,0,14.46h4.81v-8.08a3.513,3.513,0,0,1,.14-1.17,2.673,2.673,0,0,1,2.48-1.75c1.73,0,2.42,1.31,2.42,3.27v7.73h4.81Z" transform="translate(-2016 -1298)"/>
</svg>
