<svg xmlns="http://www.w3.org/2000/svg" width="201" height="40" viewBox="0 0 201 40">
  <metadata><?xpacket begin="﻿" id="W5M0MpCehiHzreSzNTczkc9d"?>
<x:xmpmeta xmlns:x="adobe:ns:meta/" x:xmptk="Adobe XMP Core 5.6-c138 79.159824, 2016/09/14-01:09:01        ">
   <rdf:RDF xmlns:rdf="http://www.w3.org/1999/02/22-rdf-syntax-ns#">
      <rdf:Description rdf:about=""/>
   </rdf:RDF>
</x:xmpmeta>
                                                                                                    
                                                                                                    
                                                                                                    
                                                                                                    
                                                                                                    
                                                                                                    
                                                                                                    
                                                                                                    
                                                                                                    
                                                                                                    
                                                                                                    
                                                                                                    
                                                                                                    
                                                                                                    
                                                                                                    
                                                                                                    
                                                                                                    
                                                                                                    
                                                                                                    
                                                                                                    
                           
<?xpacket end="w"?></metadata>
<defs>
    <style>
      .cls-1 {
        fill: #31373c;
        fill-rule: evenodd;
      }
    </style>
  </defs>
  <path id="passalong_logo" class="cls-1" d="M2136.58,1331.99L2122,1312.08l14.49-20.08,23.5,7.63v24.64Zm-13.53-19.92L2136.9,1331l22.24-7.34v-23.42l-22.32-7.25Zm9.15-6.92h23.38v-2.12l-17.67-5.71Zm23.38,3.13h-25.66l-2.92,4,2.89,3.97h25.69v-7.97Zm-23.4,11.1,5.73,7.87,17.67-5.72v-2.15h-23.4Zm47.94-4.08h-5.92v8.56h-2.75v-24.27h9.12c5.5,0,9.12,2.91,9.12,7.73C2189.69,1312.59,2185.3,1315.3,2180.12,1315.3Zm0.24-13.18h-6.16v10.68h6.02c4.04,0,6.68-2.15,6.68-5.37C2186.9,1303.93,2184.29,1302.12,2180.36,1302.12Zm29.34-.03h-14.86v8.28h13.3v2.5h-13.3v8.49h15.04v2.5h-17.79v-24.27h17.61v2.5Zm20.84-2.5h2.68v24.27h-2.19l-15.73-19.9v19.9h-2.68v-24.27h2.57l15.35,19.45v-19.45Zm23.01,2.53h-14.76v8.67h13.19v2.5h-13.19v10.57h-2.75v-24.27h17.51v2.53Zm22.07,11.37c0,7.08-4.07,10.75-10.16,10.75-6.02,0-10.13-3.67-10.13-10.54v-14.11h2.75v13.94c0,5.23,2.78,8.18,7.45,8.18,4.49,0,7.34-2.7,7.34-8.01v-14.11h2.75v13.9Zm20.47-13.9h2.68v24.27h-2.19l-15.73-19.9v19.9h-2.68v-24.27h2.58l15.34,19.45v-19.45Zm13.96,24.27h-8.46v-24.27h8.46c7.66,0,12.95,5.24,12.95,12.1S2317.71,1323.86,2310.05,1323.86Zm0-21.74h-5.71v19.21h5.71c6.16,0,10.09-4.16,10.09-9.57S2316.21,1302.12,2310.05,1302.12Z" transform="translate(-2122 -1292)"/>
</svg>
