<!-- Generator: Adobe Illustrator 22.0.1, SVG Export Plug-In  -->
<svg version="1.1"
	 xmlns="http://www.w3.org/2000/svg" xmlns:xlink="http://www.w3.org/1999/xlink" xmlns:a="http://ns.adobe.com/AdobeSVGViewerExtensions/3.0/"
	 x="0px" y="0px" width="216px" height="216px" viewBox="0 0 216 216" style="enable-background:new 0 0 216 216;"
	 xml:space="preserve">
<style type="text/css">
	.st0{fill:#000000;}
</style>
<defs>
</defs>
<g>
	<path class="st0" d="M108,216c59.7,0,108-48.3,108-108S167.7,0,108,0S0,48.3,0,108S48.3,216,108,216z M108,12c52.8,0,96,43.2,96,96
		s-43.2,96-96,96s-96-43.2-96-96S55.2,12,108,12z"/>
	<path class="st0" d="M78,155.1c0.9,0.6,2.1,0.9,3,0.9s2.1-0.3,3-0.9l72-42c1.8-1.2,3-3,3-5.1c0-2.1-1.2-4.2-3-5.1l-72-42
		c-1.8-1.2-4.2-1.2-6,0c-1.8,1.2-3,3-3,5.1v84C75,152.1,76.2,154.2,78,155.1z M87,76.5l54,31.5l-54,31.5V76.5z"/>
</g>
</svg>
