<svg xmlns="http://www.w3.org/2000/svg" viewBox="0 0 17 16"><defs><style>.cls-1{fill:#31373c;}</style></defs><title>reset</title><g id="Layer_2" data-name="Layer 2"><g id="Layer_1-2" data-name="Layer 1"><path id="reset" class="cls-1" d="M8.84,0a8.2,8.2,0,0,1,6.88,3.69,7.92,7.92,0,0,1-2.27,10.92A8.09,8.09,0,0,1,8.88,16a8.3,8.3,0,0,1-3.15-.62v-.1a9.89,9.89,0,0,1,.14-1.43c0-.08,0-.15,0-.25a6.73,6.73,0,0,0,3,.68,6.57,6.57,0,0,0,3.6-1.07A6.33,6.33,0,0,0,14.35,4.6,6.53,6.53,0,0,0,3.18,5L3,5.29l.31.19,1.24.76L0,8.59l.2-5,1,.61.36.21L1.75,4A7.93,7.93,0,0,1,4.38,1.25,8.59,8.59,0,0,1,8.84,0"/></g></g></svg>